<svg version="1.2" xmlns="http://www.w3.org/2000/svg" viewBox="0 0 2000 2000" width="2000" height="2000">
	<title>image-svg</title>
	<style>
		.s0 { fill: #ffffff; }
	</style>
	<path id="Layer" class="s0" d="m804.1 383.2c-2.6 4.8-6.6 16.2-11.1 23.3q-0.6 1-1.5 1.8-0.8 0.8-1.9 1.4-1 0.6-2.2 0.9-1.2 0.3-2.4 0.3h-256.7q-4.3 0-3.7-4.3 16.3-106.3 71.1-184.8 163.6-234.4 447.8-212.8c79.9 6.1 165.6 42.9 231.5 91.7q148.7 109.9 187.3 289.2 12 55.7 12 173.1-0.3 215.3 0.2 430.5c0.8 305.3-264.3 539.9-569.4 481.9-222.8-42.4-383.9-235.6-386.1-465.6q0-3.3 3.2-3.3h251.3q3.5 0 3.9 3.6 17.5 165.6 161.9 204.9c114.6 31.3 226.7-32 263.1-143.9q11.1-33.9 10.9-90.9-0.3-204 0-407.7 0.3-116.2-13.1-156.6c-59.2-178.7-305-200.2-396.1-32.7zm871.3 911.9q57.3-131.4 58.9-283.9 0.1-4.7 4.8-4.7h251.9q3.6 0 3.6 3.7c-3.4 609.9-531.5 1048-1124.9 977.4-426.7-50.8-765.3-362.1-854.5-781.1q-20-93.7-14.4-196.2 0.2-3.8 3.9-3.8h247.6q5 0 5.1 5c4.8 400.8 313.7 714.2 707.7 734.3q159.3 8.1 321.2-62.9 272.1-119.7 389.1-387.8z"/>
</svg>
